<svg width="24" height="24" viewBox="0 0 24 24" fill="none" xmlns="http://www.w3.org/2000/svg">
<path fill-rule="evenodd" clip-rule="evenodd" d="M8.42645 2.79633C2.24969 6.00224 1.11243 14.2186 6.22424 18.7068C10.434 22.4031 18.3002 21.4899 21.0782 16.9823C22.1424 15.2555 22.0282 13.843 20.8398 14.0326C12.6854 15.3332 7.93487 10.3436 11.8916 4.63397C13.5786 2.19971 11.5988 1.14978 8.42645 2.79633ZM8.72328 8.00932C8.50221 12.8795 11.9126 16.6784 16.5058 16.6784C18.3187 16.6784 18.2464 17.1935 16.2918 18.2043C10.0981 21.4072 2.93351 14.5549 5.91238 8.27739C6.43638 7.17314 8.30863 5.12965 8.80521 5.11996C8.83231 5.11944 8.79545 6.41966 8.72328 8.00932Z" fill="white"/>
</svg>
