<svg width="24" height="24" viewBox="0 0 24 24" fill="none" xmlns="http://www.w3.org/2000/svg">
<path d="M9.14132 15.9171C9.06322 15.9952 8.93659 15.9952 8.85848 15.9171L5.08275 12.1414C4.92654 11.9852 4.67327 11.9852 4.51706 12.1414L3.54132 13.1171C3.38511 13.2733 3.38511 13.5266 3.54132 13.6828L3.61203 13.6121L3.54132 13.6828L8.71706 18.8586C8.87327 19.0148 9.12653 19.0148 9.28274 18.8586L20.8585 7.28282C21.0147 7.12661 21.0147 6.87334 20.8585 6.71713L19.8827 5.7414C19.7265 5.58519 19.4733 5.58519 19.3171 5.7414L19.3878 5.81211L19.3171 5.7414L9.14132 15.9171Z" fill="black" stroke="black" stroke-width="0.2"/>
</svg>
